<mxfile host="app.diagrams.net" modified="2023-06-16T12:32:46.336Z" agent="Mozilla/5.0 (Macintosh; Intel Mac OS X 10_15_7) AppleWebKit/537.36 (KHTML, like Gecko) Chrome/114.0.0.0 Safari/537.36" etag="55SElVWc6zLVshtVWSoz" version="21.2.1" type="device">
  <diagram name="Seite-1" id="CQYHk89GWrRvfhB-j-TM">
    <mxGraphModel dx="7315" dy="4201" grid="1" gridSize="10" guides="1" tooltips="1" connect="1" arrows="1" fold="1" page="1" pageScale="1" pageWidth="827" pageHeight="1169" math="0" shadow="0">
      <root>
        <mxCell id="0" />
        <mxCell id="1" parent="0" />
        <mxCell id="Qa8hO3EmP1lbb9F087W9-24" value="" style="group" vertex="1" connectable="0" parent="1">
          <mxGeometry x="-3070" y="-680" width="510" height="1040" as="geometry" />
        </mxCell>
        <mxCell id="Qa8hO3EmP1lbb9F087W9-1" value="" style="group" vertex="1" connectable="0" parent="Qa8hO3EmP1lbb9F087W9-24">
          <mxGeometry y="120" width="510" height="720" as="geometry" />
        </mxCell>
        <mxCell id="Qa8hO3EmP1lbb9F087W9-2" value="" style="rounded=1;whiteSpace=wrap;html=1;fillColor=#F9C80E;strokeColor=none;" vertex="1" parent="Qa8hO3EmP1lbb9F087W9-1">
          <mxGeometry width="510" height="180" as="geometry" />
        </mxCell>
        <mxCell id="Qa8hO3EmP1lbb9F087W9-3" value="" style="rounded=1;whiteSpace=wrap;html=1;fillColor=#FF5252;strokeColor=none;" vertex="1" parent="Qa8hO3EmP1lbb9F087W9-1">
          <mxGeometry y="180" width="510" height="180" as="geometry" />
        </mxCell>
        <mxCell id="Qa8hO3EmP1lbb9F087W9-4" value="" style="rounded=1;whiteSpace=wrap;html=1;fillColor=#2ECC71;strokeColor=none;" vertex="1" parent="Qa8hO3EmP1lbb9F087W9-1">
          <mxGeometry y="360" width="510" height="180" as="geometry" />
        </mxCell>
        <mxCell id="Qa8hO3EmP1lbb9F087W9-5" value="" style="rounded=1;whiteSpace=wrap;html=1;fillColor=#3498DB;strokeColor=none;" vertex="1" parent="Qa8hO3EmP1lbb9F087W9-1">
          <mxGeometry y="540" width="510" height="180" as="geometry" />
        </mxCell>
        <mxCell id="Qa8hO3EmP1lbb9F087W9-6" value="&lt;font color=&quot;#ffffff&quot; style=&quot;font-size: 24px;&quot;&gt;Presentation&lt;/font&gt;" style="text;html=1;strokeColor=none;fillColor=none;align=center;verticalAlign=middle;whiteSpace=wrap;rounded=0;" vertex="1" parent="Qa8hO3EmP1lbb9F087W9-1">
          <mxGeometry x="172.5" y="75" width="165" height="30" as="geometry" />
        </mxCell>
        <mxCell id="Qa8hO3EmP1lbb9F087W9-7" value="&lt;font color=&quot;#ffffff&quot; style=&quot;font-size: 24px;&quot;&gt;Application&lt;/font&gt;" style="text;html=1;strokeColor=none;fillColor=none;align=center;verticalAlign=middle;whiteSpace=wrap;rounded=0;" vertex="1" parent="Qa8hO3EmP1lbb9F087W9-1">
          <mxGeometry x="172.5" y="255" width="165" height="30" as="geometry" />
        </mxCell>
        <mxCell id="Qa8hO3EmP1lbb9F087W9-8" value="&lt;font color=&quot;#ffffff&quot; style=&quot;font-size: 24px;&quot;&gt;Domain&lt;/font&gt;" style="text;html=1;strokeColor=none;fillColor=none;align=center;verticalAlign=middle;whiteSpace=wrap;rounded=0;" vertex="1" parent="Qa8hO3EmP1lbb9F087W9-1">
          <mxGeometry x="172.5" y="435" width="165" height="30" as="geometry" />
        </mxCell>
        <mxCell id="Qa8hO3EmP1lbb9F087W9-9" value="&lt;font color=&quot;#ffffff&quot; style=&quot;font-size: 24px;&quot;&gt;Infrastructure&lt;/font&gt;" style="text;html=1;strokeColor=none;fillColor=none;align=center;verticalAlign=middle;whiteSpace=wrap;rounded=0;" vertex="1" parent="Qa8hO3EmP1lbb9F087W9-1">
          <mxGeometry x="172.5" y="615" width="165" height="30" as="geometry" />
        </mxCell>
        <mxCell id="Qa8hO3EmP1lbb9F087W9-10" value="" style="shape=flexArrow;endArrow=classic;html=1;rounded=0;exitX=0.25;exitY=0;exitDx=0;exitDy=0;entryX=0.25;entryY=1;entryDx=0;entryDy=0;fillColor=default;strokeColor=none;" edge="1" parent="Qa8hO3EmP1lbb9F087W9-1" source="Qa8hO3EmP1lbb9F087W9-2" target="Qa8hO3EmP1lbb9F087W9-5">
          <mxGeometry width="50" height="50" relative="1" as="geometry">
            <mxPoint x="450" y="390" as="sourcePoint" />
            <mxPoint x="500" y="340" as="targetPoint" />
          </mxGeometry>
        </mxCell>
        <mxCell id="Qa8hO3EmP1lbb9F087W9-11" value="" style="shape=flexArrow;endArrow=classic;html=1;rounded=0;exitX=0.75;exitY=1;exitDx=0;exitDy=0;entryX=0.75;entryY=0;entryDx=0;entryDy=0;strokeColor=none;fillColor=default;" edge="1" parent="Qa8hO3EmP1lbb9F087W9-1" source="Qa8hO3EmP1lbb9F087W9-5" target="Qa8hO3EmP1lbb9F087W9-2">
          <mxGeometry width="50" height="50" relative="1" as="geometry">
            <mxPoint x="450" y="390" as="sourcePoint" />
            <mxPoint x="500" y="340" as="targetPoint" />
          </mxGeometry>
        </mxCell>
        <mxCell id="Qa8hO3EmP1lbb9F087W9-12" value="&lt;font color=&quot;#a1a1aa&quot; style=&quot;font-size: 24px;&quot;&gt;User&lt;/font&gt;" style="shape=umlActor;verticalLabelPosition=bottom;verticalAlign=top;html=1;outlineConnect=0;strokeWidth=3;strokeColor=#A1A1AA;fillColor=none;" vertex="1" parent="Qa8hO3EmP1lbb9F087W9-24">
          <mxGeometry x="240" width="30" height="60" as="geometry" />
        </mxCell>
        <mxCell id="Qa8hO3EmP1lbb9F087W9-15" value="" style="ellipse;shape=cloud;whiteSpace=wrap;html=1;strokeWidth=3;strokeColor=#A1A1AA;fillColor=none;" vertex="1" parent="Qa8hO3EmP1lbb9F087W9-24">
          <mxGeometry x="56" y="900" width="120" height="80" as="geometry" />
        </mxCell>
        <mxCell id="Qa8hO3EmP1lbb9F087W9-16" value="" style="shape=cylinder3;whiteSpace=wrap;html=1;boundedLbl=1;backgroundOutline=1;size=15;strokeWidth=3;strokeColor=#A1A1AA;fillColor=none;" vertex="1" parent="Qa8hO3EmP1lbb9F087W9-24">
          <mxGeometry x="240" y="900" width="60" height="80" as="geometry" />
        </mxCell>
        <mxCell id="Qa8hO3EmP1lbb9F087W9-17" value="" style="shape=internalStorage;whiteSpace=wrap;html=1;backgroundOutline=1;strokeWidth=3;strokeColor=#A1A1AA;fillColor=none;" vertex="1" parent="Qa8hO3EmP1lbb9F087W9-24">
          <mxGeometry x="370" y="900" width="80" height="80" as="geometry" />
        </mxCell>
        <mxCell id="Qa8hO3EmP1lbb9F087W9-18" value="&lt;font color=&quot;#a1a1aa&quot; style=&quot;font-size: 24px;&quot;&gt;API&lt;/font&gt;" style="text;html=1;strokeColor=none;fillColor=none;align=center;verticalAlign=middle;whiteSpace=wrap;rounded=0;" vertex="1" parent="Qa8hO3EmP1lbb9F087W9-24">
          <mxGeometry x="86" y="1010" width="60" height="30" as="geometry" />
        </mxCell>
        <mxCell id="Qa8hO3EmP1lbb9F087W9-22" value="&lt;font color=&quot;#a1a1aa&quot; style=&quot;font-size: 24px;&quot;&gt;Database&lt;/font&gt;" style="text;html=1;strokeColor=none;fillColor=none;align=center;verticalAlign=middle;whiteSpace=wrap;rounded=0;" vertex="1" parent="Qa8hO3EmP1lbb9F087W9-24">
          <mxGeometry x="240" y="1010" width="60" height="30" as="geometry" />
        </mxCell>
        <mxCell id="Qa8hO3EmP1lbb9F087W9-23" value="&lt;span style=&quot;font-size: 24px;&quot;&gt;&lt;font color=&quot;#a1a1aa&quot;&gt;Device&lt;/font&gt;&lt;/span&gt;" style="text;html=1;strokeColor=none;fillColor=none;align=center;verticalAlign=middle;whiteSpace=wrap;rounded=0;" vertex="1" parent="Qa8hO3EmP1lbb9F087W9-24">
          <mxGeometry x="380" y="1010" width="60" height="30" as="geometry" />
        </mxCell>
        <mxCell id="Qa8hO3EmP1lbb9F087W9-37" value="" style="group" vertex="1" connectable="0" parent="1">
          <mxGeometry x="-2220" y="-540" width="510" height="420" as="geometry" />
        </mxCell>
        <mxCell id="Qa8hO3EmP1lbb9F087W9-33" value="" style="group" vertex="1" connectable="0" parent="Qa8hO3EmP1lbb9F087W9-37">
          <mxGeometry width="510" height="180" as="geometry" />
        </mxCell>
        <mxCell id="Qa8hO3EmP1lbb9F087W9-25" value="" style="rounded=1;whiteSpace=wrap;html=1;fillColor=#F9C80E;strokeColor=none;" vertex="1" parent="Qa8hO3EmP1lbb9F087W9-33">
          <mxGeometry width="510" height="180" as="geometry" />
        </mxCell>
        <mxCell id="Qa8hO3EmP1lbb9F087W9-32" value="&lt;font color=&quot;#ffffff&quot; style=&quot;font-size: 24px;&quot;&gt;UI&lt;/font&gt;" style="text;html=1;strokeColor=none;fillColor=none;align=center;verticalAlign=middle;whiteSpace=wrap;rounded=0;" vertex="1" parent="Qa8hO3EmP1lbb9F087W9-33">
          <mxGeometry x="172.5" y="75" width="165" height="30" as="geometry" />
        </mxCell>
        <mxCell id="Qa8hO3EmP1lbb9F087W9-35" value="" style="group;rounded=1;" vertex="1" connectable="0" parent="Qa8hO3EmP1lbb9F087W9-37">
          <mxGeometry y="240" width="510" height="180" as="geometry" />
        </mxCell>
        <mxCell id="Qa8hO3EmP1lbb9F087W9-28" value="" style="rounded=1;whiteSpace=wrap;html=1;fillColor=#3499db;strokeColor=none;container=0;arcSize=24;" vertex="1" parent="Qa8hO3EmP1lbb9F087W9-35">
          <mxGeometry y="90" width="510" height="90" as="geometry" />
        </mxCell>
        <mxCell id="Qa8hO3EmP1lbb9F087W9-29" value="" style="rounded=1;whiteSpace=wrap;html=1;fillColor=#F9C80E;strokeColor=none;container=0;arcSize=24;" vertex="1" parent="Qa8hO3EmP1lbb9F087W9-35">
          <mxGeometry width="510" height="90" as="geometry" />
        </mxCell>
        <mxCell id="Qa8hO3EmP1lbb9F087W9-27" value="" style="rounded=0;whiteSpace=wrap;html=1;fillColor=#2fcc71;strokeColor=none;container=0;" vertex="1" parent="Qa8hO3EmP1lbb9F087W9-35">
          <mxGeometry y="90" width="510" height="45" as="geometry" />
        </mxCell>
        <mxCell id="Qa8hO3EmP1lbb9F087W9-26" value="" style="rounded=0;whiteSpace=wrap;html=1;fillColor=#FF5252;strokeColor=none;container=0;" vertex="1" parent="Qa8hO3EmP1lbb9F087W9-35">
          <mxGeometry y="45" width="510" height="45" as="geometry" />
        </mxCell>
        <mxCell id="Qa8hO3EmP1lbb9F087W9-31" value="&lt;font color=&quot;#ffffff&quot; style=&quot;font-size: 24px;&quot;&gt;App&lt;/font&gt;" style="text;html=1;strokeColor=none;fillColor=none;align=center;verticalAlign=middle;whiteSpace=wrap;rounded=0;container=0;" vertex="1" parent="Qa8hO3EmP1lbb9F087W9-35">
          <mxGeometry x="172.5" y="75" width="165" height="30" as="geometry" />
        </mxCell>
        <mxCell id="Qa8hO3EmP1lbb9F087W9-36" style="edgeStyle=orthogonalEdgeStyle;rounded=0;orthogonalLoop=1;jettySize=auto;html=1;exitX=0.5;exitY=0;exitDx=0;exitDy=0;entryX=0.5;entryY=1;entryDx=0;entryDy=0;strokeWidth=3;strokeColor=#A1A1AA;" edge="1" parent="Qa8hO3EmP1lbb9F087W9-37" source="Qa8hO3EmP1lbb9F087W9-29" target="Qa8hO3EmP1lbb9F087W9-25">
          <mxGeometry relative="1" as="geometry" />
        </mxCell>
        <mxCell id="Qa8hO3EmP1lbb9F087W9-80" value="" style="group" vertex="1" connectable="0" parent="1">
          <mxGeometry x="-3060" y="560" width="1935" height="420" as="geometry" />
        </mxCell>
        <mxCell id="Qa8hO3EmP1lbb9F087W9-39" value="" style="group" vertex="1" connectable="0" parent="Qa8hO3EmP1lbb9F087W9-80">
          <mxGeometry x="3" width="1930" height="180" as="geometry" />
        </mxCell>
        <mxCell id="Qa8hO3EmP1lbb9F087W9-40" value="" style="rounded=1;whiteSpace=wrap;html=1;fillColor=#F9C80E;strokeColor=none;" vertex="1" parent="Qa8hO3EmP1lbb9F087W9-39">
          <mxGeometry width="1930" height="180" as="geometry" />
        </mxCell>
        <mxCell id="Qa8hO3EmP1lbb9F087W9-41" value="&lt;font color=&quot;#ffffff&quot; style=&quot;font-size: 24px;&quot;&gt;UI Package&lt;/font&gt;" style="text;html=1;strokeColor=none;fillColor=none;align=center;verticalAlign=middle;whiteSpace=wrap;rounded=0;" vertex="1" parent="Qa8hO3EmP1lbb9F087W9-39">
          <mxGeometry x="652.7941176470588" y="75" width="624.4117647058822" height="30" as="geometry" />
        </mxCell>
        <mxCell id="Qa8hO3EmP1lbb9F087W9-43" value="" style="group" vertex="1" connectable="0" parent="Qa8hO3EmP1lbb9F087W9-80">
          <mxGeometry y="240" width="255" height="180" as="geometry" />
        </mxCell>
        <mxCell id="Qa8hO3EmP1lbb9F087W9-44" value="" style="rounded=1;whiteSpace=wrap;html=1;fillColor=#F9C80E;strokeColor=none;" vertex="1" parent="Qa8hO3EmP1lbb9F087W9-43">
          <mxGeometry width="255" height="180" as="geometry" />
        </mxCell>
        <mxCell id="Qa8hO3EmP1lbb9F087W9-45" value="&lt;font color=&quot;#ffffff&quot; style=&quot;font-size: 24px;&quot;&gt;Platform UI Package (Android)&lt;/font&gt;" style="text;html=1;strokeColor=none;fillColor=none;align=center;verticalAlign=middle;whiteSpace=wrap;rounded=0;" vertex="1" parent="Qa8hO3EmP1lbb9F087W9-43">
          <mxGeometry x="55.629999999999995" y="75" width="143.75" height="30" as="geometry" />
        </mxCell>
        <mxCell id="Qa8hO3EmP1lbb9F087W9-47" value="" style="group" vertex="1" connectable="0" parent="Qa8hO3EmP1lbb9F087W9-80">
          <mxGeometry x="280" y="240" width="255" height="180" as="geometry" />
        </mxCell>
        <mxCell id="Qa8hO3EmP1lbb9F087W9-48" value="" style="rounded=1;whiteSpace=wrap;html=1;fillColor=#F9C80E;strokeColor=none;" vertex="1" parent="Qa8hO3EmP1lbb9F087W9-47">
          <mxGeometry width="255" height="180" as="geometry" />
        </mxCell>
        <mxCell id="Qa8hO3EmP1lbb9F087W9-49" value="&lt;font color=&quot;#ffffff&quot; style=&quot;font-size: 24px;&quot;&gt;Platform UI Package (iOS)&lt;/font&gt;" style="text;html=1;strokeColor=none;fillColor=none;align=center;verticalAlign=middle;whiteSpace=wrap;rounded=0;" vertex="1" parent="Qa8hO3EmP1lbb9F087W9-47">
          <mxGeometry x="55.629999999999995" y="75" width="143.75" height="30" as="geometry" />
        </mxCell>
        <mxCell id="Qa8hO3EmP1lbb9F087W9-50" value="" style="group" vertex="1" connectable="0" parent="Qa8hO3EmP1lbb9F087W9-80">
          <mxGeometry x="560" y="240" width="255" height="180" as="geometry" />
        </mxCell>
        <mxCell id="Qa8hO3EmP1lbb9F087W9-51" value="" style="rounded=1;whiteSpace=wrap;html=1;fillColor=#F9C80E;strokeColor=none;" vertex="1" parent="Qa8hO3EmP1lbb9F087W9-50">
          <mxGeometry width="255" height="180" as="geometry" />
        </mxCell>
        <mxCell id="Qa8hO3EmP1lbb9F087W9-52" value="&lt;font color=&quot;#ffffff&quot; style=&quot;font-size: 24px;&quot;&gt;Platform UI Package (Linux)&lt;/font&gt;" style="text;html=1;strokeColor=none;fillColor=none;align=center;verticalAlign=middle;whiteSpace=wrap;rounded=0;" vertex="1" parent="Qa8hO3EmP1lbb9F087W9-50">
          <mxGeometry x="55.629999999999995" y="75" width="143.75" height="30" as="geometry" />
        </mxCell>
        <mxCell id="Qa8hO3EmP1lbb9F087W9-53" value="" style="group" vertex="1" connectable="0" parent="Qa8hO3EmP1lbb9F087W9-80">
          <mxGeometry x="840" y="240" width="255" height="180" as="geometry" />
        </mxCell>
        <mxCell id="Qa8hO3EmP1lbb9F087W9-54" value="" style="rounded=1;whiteSpace=wrap;html=1;fillColor=#F9C80E;strokeColor=none;" vertex="1" parent="Qa8hO3EmP1lbb9F087W9-53">
          <mxGeometry width="255" height="180" as="geometry" />
        </mxCell>
        <mxCell id="Qa8hO3EmP1lbb9F087W9-55" value="&lt;font color=&quot;#ffffff&quot; style=&quot;font-size: 24px;&quot;&gt;Platform UI Package (macOS)&lt;/font&gt;" style="text;html=1;strokeColor=none;fillColor=none;align=center;verticalAlign=middle;whiteSpace=wrap;rounded=0;" vertex="1" parent="Qa8hO3EmP1lbb9F087W9-53">
          <mxGeometry x="55.629999999999995" y="75" width="143.75" height="30" as="geometry" />
        </mxCell>
        <mxCell id="Qa8hO3EmP1lbb9F087W9-56" value="" style="group" vertex="1" connectable="0" parent="Qa8hO3EmP1lbb9F087W9-80">
          <mxGeometry x="1120" y="240" width="255" height="180" as="geometry" />
        </mxCell>
        <mxCell id="Qa8hO3EmP1lbb9F087W9-57" value="" style="rounded=1;whiteSpace=wrap;html=1;fillColor=#F9C80E;strokeColor=none;" vertex="1" parent="Qa8hO3EmP1lbb9F087W9-56">
          <mxGeometry width="255" height="180" as="geometry" />
        </mxCell>
        <mxCell id="Qa8hO3EmP1lbb9F087W9-58" value="&lt;font color=&quot;#ffffff&quot; style=&quot;font-size: 24px;&quot;&gt;Platform UI Package (Web)&lt;/font&gt;" style="text;html=1;strokeColor=none;fillColor=none;align=center;verticalAlign=middle;whiteSpace=wrap;rounded=0;" vertex="1" parent="Qa8hO3EmP1lbb9F087W9-56">
          <mxGeometry x="55.629999999999995" y="75" width="143.75" height="30" as="geometry" />
        </mxCell>
        <mxCell id="Qa8hO3EmP1lbb9F087W9-59" value="" style="group" vertex="1" connectable="0" parent="Qa8hO3EmP1lbb9F087W9-80">
          <mxGeometry x="1400" y="240" width="255" height="180" as="geometry" />
        </mxCell>
        <mxCell id="Qa8hO3EmP1lbb9F087W9-60" value="" style="rounded=1;whiteSpace=wrap;html=1;fillColor=#F9C80E;strokeColor=none;" vertex="1" parent="Qa8hO3EmP1lbb9F087W9-59">
          <mxGeometry width="255" height="180" as="geometry" />
        </mxCell>
        <mxCell id="Qa8hO3EmP1lbb9F087W9-61" value="&lt;font color=&quot;#ffffff&quot; style=&quot;font-size: 24px;&quot;&gt;Platform UI Package (Windows)&lt;/font&gt;" style="text;html=1;strokeColor=none;fillColor=none;align=center;verticalAlign=middle;whiteSpace=wrap;rounded=0;" vertex="1" parent="Qa8hO3EmP1lbb9F087W9-59">
          <mxGeometry x="55.629999999999995" y="75" width="143.75" height="30" as="geometry" />
        </mxCell>
        <mxCell id="Qa8hO3EmP1lbb9F087W9-62" value="" style="group" vertex="1" connectable="0" parent="Qa8hO3EmP1lbb9F087W9-80">
          <mxGeometry x="1680" y="240" width="255" height="180" as="geometry" />
        </mxCell>
        <mxCell id="Qa8hO3EmP1lbb9F087W9-63" value="" style="rounded=1;whiteSpace=wrap;html=1;fillColor=#F9C80E;strokeColor=none;" vertex="1" parent="Qa8hO3EmP1lbb9F087W9-62">
          <mxGeometry width="255" height="180" as="geometry" />
        </mxCell>
        <mxCell id="Qa8hO3EmP1lbb9F087W9-64" value="&lt;font color=&quot;#ffffff&quot; style=&quot;font-size: 24px;&quot;&gt;Platform UI Package (mobile)&lt;/font&gt;" style="text;html=1;strokeColor=none;fillColor=none;align=center;verticalAlign=middle;whiteSpace=wrap;rounded=0;" vertex="1" parent="Qa8hO3EmP1lbb9F087W9-62">
          <mxGeometry x="55.629999999999995" y="75" width="143.75" height="30" as="geometry" />
        </mxCell>
        <mxCell id="Qa8hO3EmP1lbb9F087W9-69" style="edgeStyle=orthogonalEdgeStyle;rounded=0;orthogonalLoop=1;jettySize=auto;html=1;exitX=0.5;exitY=0;exitDx=0;exitDy=0;strokeWidth=3;strokeColor=#A1A1AA;" edge="1" parent="Qa8hO3EmP1lbb9F087W9-80" source="Qa8hO3EmP1lbb9F087W9-44">
          <mxGeometry relative="1" as="geometry">
            <mxPoint x="127" y="180" as="targetPoint" />
          </mxGeometry>
        </mxCell>
        <mxCell id="Qa8hO3EmP1lbb9F087W9-72" style="edgeStyle=orthogonalEdgeStyle;rounded=0;orthogonalLoop=1;jettySize=auto;html=1;exitX=0.5;exitY=0;exitDx=0;exitDy=0;entryX=0.21;entryY=1;entryDx=0;entryDy=0;entryPerimeter=0;strokeWidth=3;strokeColor=#A1A1AA;" edge="1" parent="Qa8hO3EmP1lbb9F087W9-80" source="Qa8hO3EmP1lbb9F087W9-48" target="Qa8hO3EmP1lbb9F087W9-40">
          <mxGeometry relative="1" as="geometry" />
        </mxCell>
        <mxCell id="Qa8hO3EmP1lbb9F087W9-73" style="edgeStyle=orthogonalEdgeStyle;rounded=0;orthogonalLoop=1;jettySize=auto;html=1;exitX=0.5;exitY=0;exitDx=0;exitDy=0;entryX=0.355;entryY=1;entryDx=0;entryDy=0;entryPerimeter=0;strokeWidth=3;strokeColor=#A1A1AA;" edge="1" parent="Qa8hO3EmP1lbb9F087W9-80" source="Qa8hO3EmP1lbb9F087W9-51" target="Qa8hO3EmP1lbb9F087W9-40">
          <mxGeometry relative="1" as="geometry" />
        </mxCell>
        <mxCell id="Qa8hO3EmP1lbb9F087W9-74" style="edgeStyle=orthogonalEdgeStyle;rounded=0;orthogonalLoop=1;jettySize=auto;html=1;exitX=0.5;exitY=0;exitDx=0;exitDy=0;entryX=0.5;entryY=1;entryDx=0;entryDy=0;strokeWidth=3;strokeColor=#A1A1AA;" edge="1" parent="Qa8hO3EmP1lbb9F087W9-80" source="Qa8hO3EmP1lbb9F087W9-54" target="Qa8hO3EmP1lbb9F087W9-40">
          <mxGeometry relative="1" as="geometry" />
        </mxCell>
        <mxCell id="Qa8hO3EmP1lbb9F087W9-76" style="edgeStyle=orthogonalEdgeStyle;rounded=0;orthogonalLoop=1;jettySize=auto;html=1;exitX=0.5;exitY=0;exitDx=0;exitDy=0;entryX=0.79;entryY=1;entryDx=0;entryDy=0;entryPerimeter=0;strokeWidth=3;strokeColor=#A1A1AA;" edge="1" parent="Qa8hO3EmP1lbb9F087W9-80" source="Qa8hO3EmP1lbb9F087W9-60" target="Qa8hO3EmP1lbb9F087W9-40">
          <mxGeometry relative="1" as="geometry" />
        </mxCell>
        <mxCell id="Qa8hO3EmP1lbb9F087W9-77" style="edgeStyle=orthogonalEdgeStyle;rounded=0;orthogonalLoop=1;jettySize=auto;html=1;exitX=0.5;exitY=0;exitDx=0;exitDy=0;entryX=0.935;entryY=1;entryDx=0;entryDy=0;entryPerimeter=0;strokeWidth=3;strokeColor=#A1A1AA;" edge="1" parent="Qa8hO3EmP1lbb9F087W9-80" source="Qa8hO3EmP1lbb9F087W9-63" target="Qa8hO3EmP1lbb9F087W9-40">
          <mxGeometry relative="1" as="geometry" />
        </mxCell>
        <mxCell id="Qa8hO3EmP1lbb9F087W9-79" style="edgeStyle=orthogonalEdgeStyle;rounded=0;orthogonalLoop=1;jettySize=auto;html=1;exitX=0.5;exitY=0;exitDx=0;exitDy=0;entryX=0.645;entryY=1;entryDx=0;entryDy=0;entryPerimeter=0;strokeWidth=3;strokeColor=#A1A1AA;" edge="1" parent="Qa8hO3EmP1lbb9F087W9-80" source="Qa8hO3EmP1lbb9F087W9-57" target="Qa8hO3EmP1lbb9F087W9-40">
          <mxGeometry relative="1" as="geometry" />
        </mxCell>
        <mxCell id="Qa8hO3EmP1lbb9F087W9-169" value="" style="group" vertex="1" connectable="0" parent="1">
          <mxGeometry x="-3020" y="1140" width="1935" height="420" as="geometry" />
        </mxCell>
        <mxCell id="Qa8hO3EmP1lbb9F087W9-170" value="" style="group" vertex="1" connectable="0" parent="Qa8hO3EmP1lbb9F087W9-169">
          <mxGeometry x="3" width="1020" height="180" as="geometry" />
        </mxCell>
        <mxCell id="Qa8hO3EmP1lbb9F087W9-171" value="" style="rounded=1;whiteSpace=wrap;html=1;fillColor=#F9C80E;strokeColor=none;" vertex="1" parent="Qa8hO3EmP1lbb9F087W9-170">
          <mxGeometry width="1020" height="180" as="geometry" />
        </mxCell>
        <mxCell id="Qa8hO3EmP1lbb9F087W9-172" value="&lt;font color=&quot;#ffffff&quot; style=&quot;font-size: 24px;&quot;&gt;UI Package&lt;/font&gt;" style="text;html=1;strokeColor=none;fillColor=none;align=center;verticalAlign=middle;whiteSpace=wrap;rounded=0;" vertex="1" parent="Qa8hO3EmP1lbb9F087W9-170">
          <mxGeometry x="345" y="75" width="329.99999999999994" height="30" as="geometry" />
        </mxCell>
        <mxCell id="Qa8hO3EmP1lbb9F087W9-173" value="" style="group" vertex="1" connectable="0" parent="Qa8hO3EmP1lbb9F087W9-169">
          <mxGeometry x="3" y="240" width="510" height="180" as="geometry" />
        </mxCell>
        <mxCell id="Qa8hO3EmP1lbb9F087W9-174" value="" style="rounded=1;whiteSpace=wrap;html=1;fillColor=#F9C80E;strokeColor=none;" vertex="1" parent="Qa8hO3EmP1lbb9F087W9-173">
          <mxGeometry width="510" height="180" as="geometry" />
        </mxCell>
        <mxCell id="Qa8hO3EmP1lbb9F087W9-175" value="&lt;font color=&quot;#ffffff&quot; style=&quot;font-size: 24px;&quot;&gt;Platform UI Package&lt;/font&gt;" style="text;html=1;strokeColor=none;fillColor=none;align=center;verticalAlign=middle;whiteSpace=wrap;rounded=0;" vertex="1" parent="Qa8hO3EmP1lbb9F087W9-173">
          <mxGeometry x="111.25999999999999" y="75" width="287.5" height="30" as="geometry" />
        </mxCell>
        <mxCell id="Qa8hO3EmP1lbb9F087W9-207" value="&lt;font color=&quot;#ffffff&quot; style=&quot;font-size: 24px;&quot;&gt;&amp;lt;platform&amp;gt;&lt;/font&gt;" style="text;html=1;strokeColor=none;fillColor=none;align=center;verticalAlign=middle;whiteSpace=wrap;rounded=0;" vertex="1" parent="Qa8hO3EmP1lbb9F087W9-173">
          <mxGeometry x="380" y="10" width="120" height="30" as="geometry" />
        </mxCell>
        <mxCell id="Qa8hO3EmP1lbb9F087W9-194" style="edgeStyle=orthogonalEdgeStyle;rounded=0;orthogonalLoop=1;jettySize=auto;html=1;exitX=0.5;exitY=0;exitDx=0;exitDy=0;strokeWidth=3;strokeColor=#A1A1AA;entryX=0.25;entryY=1;entryDx=0;entryDy=0;" edge="1" parent="Qa8hO3EmP1lbb9F087W9-169" source="Qa8hO3EmP1lbb9F087W9-174" target="Qa8hO3EmP1lbb9F087W9-171">
          <mxGeometry relative="1" as="geometry">
            <mxPoint x="127" y="180" as="targetPoint" />
          </mxGeometry>
        </mxCell>
        <mxCell id="Qa8hO3EmP1lbb9F087W9-208" value="&lt;font style=&quot;font-size: 24px;&quot; color=&quot;#a1a1aa&quot;&gt;...&lt;/font&gt;" style="text;html=1;strokeColor=none;fillColor=none;align=center;verticalAlign=middle;whiteSpace=wrap;rounded=0;" vertex="1" parent="Qa8hO3EmP1lbb9F087W9-169">
          <mxGeometry x="750" y="315" width="60" height="30" as="geometry" />
        </mxCell>
        <mxCell id="Qa8hO3EmP1lbb9F087W9-210" value="" style="group" vertex="1" connectable="0" parent="1">
          <mxGeometry x="-3360" y="-2110" width="2230" height="1010" as="geometry" />
        </mxCell>
        <mxCell id="Qa8hO3EmP1lbb9F087W9-211" value="" style="group" vertex="1" connectable="0" parent="Qa8hO3EmP1lbb9F087W9-210">
          <mxGeometry width="1980" height="1010" as="geometry" />
        </mxCell>
        <mxCell id="Qa8hO3EmP1lbb9F087W9-212" style="edgeStyle=orthogonalEdgeStyle;rounded=0;orthogonalLoop=1;jettySize=auto;html=1;exitX=0.5;exitY=1;exitDx=0;exitDy=0;strokeWidth=3;strokeColor=#A1A1AA;" edge="1" parent="Qa8hO3EmP1lbb9F087W9-211">
          <mxGeometry relative="1" as="geometry">
            <mxPoint x="1245" y="475" as="sourcePoint" />
            <mxPoint x="1460" y="525" as="targetPoint" />
            <Array as="points">
              <mxPoint x="1245" y="505" />
              <mxPoint x="1460" y="505" />
            </Array>
          </mxGeometry>
        </mxCell>
        <mxCell id="Qa8hO3EmP1lbb9F087W9-213" value="" style="rounded=1;whiteSpace=wrap;html=1;fillColor=none;strokeColor=#A1A1AA;container=0;" vertex="1" parent="Qa8hO3EmP1lbb9F087W9-211">
          <mxGeometry x="510" width="1470" height="470" as="geometry" />
        </mxCell>
        <mxCell id="Qa8hO3EmP1lbb9F087W9-214" value="" style="rounded=1;whiteSpace=wrap;html=1;fillColor=none;strokeColor=#A1A1AA;container=0;" vertex="1" parent="Qa8hO3EmP1lbb9F087W9-211">
          <mxGeometry x="530" y="230" width="1430" height="220" as="geometry" />
        </mxCell>
        <mxCell id="Qa8hO3EmP1lbb9F087W9-215" value="" style="group" vertex="1" connectable="0" parent="Qa8hO3EmP1lbb9F087W9-211">
          <mxGeometry y="540" width="400" height="180" as="geometry" />
        </mxCell>
        <mxCell id="Qa8hO3EmP1lbb9F087W9-216" value="" style="rounded=1;whiteSpace=wrap;html=1;fillColor=#CCCCCC;strokeColor=none;" vertex="1" parent="Qa8hO3EmP1lbb9F087W9-215">
          <mxGeometry width="400" height="180" as="geometry" />
        </mxCell>
        <mxCell id="Qa8hO3EmP1lbb9F087W9-217" value="&lt;font color=&quot;#ffffff&quot; style=&quot;font-size: 24px;&quot;&gt;Logging Package&lt;/font&gt;" style="text;html=1;strokeColor=none;fillColor=none;align=center;verticalAlign=middle;whiteSpace=wrap;rounded=0;" vertex="1" parent="Qa8hO3EmP1lbb9F087W9-215">
          <mxGeometry x="92.35" y="75" width="215.29" height="30" as="geometry" />
        </mxCell>
        <mxCell id="Qa8hO3EmP1lbb9F087W9-218" style="edgeStyle=orthogonalEdgeStyle;rounded=0;orthogonalLoop=1;jettySize=auto;html=1;exitX=0.5;exitY=1;exitDx=0;exitDy=0;strokeWidth=3;strokeColor=#A1A1AA;" edge="1" parent="Qa8hO3EmP1lbb9F087W9-211" source="Qa8hO3EmP1lbb9F087W9-213" target="Qa8hO3EmP1lbb9F087W9-216">
          <mxGeometry relative="1" as="geometry" />
        </mxCell>
        <mxCell id="Qa8hO3EmP1lbb9F087W9-219" value="" style="group" vertex="1" connectable="0" parent="Qa8hO3EmP1lbb9F087W9-211">
          <mxGeometry x="420" y="540" width="400" height="180" as="geometry" />
        </mxCell>
        <mxCell id="Qa8hO3EmP1lbb9F087W9-220" value="" style="rounded=1;whiteSpace=wrap;html=1;fillColor=#CCCCCC;strokeColor=none;" vertex="1" parent="Qa8hO3EmP1lbb9F087W9-219">
          <mxGeometry width="400" height="180" as="geometry" />
        </mxCell>
        <mxCell id="Qa8hO3EmP1lbb9F087W9-221" value="&lt;font color=&quot;#ffffff&quot; style=&quot;font-size: 24px;&quot;&gt;Dependency Injection Package&lt;/font&gt;" style="text;html=1;strokeColor=none;fillColor=none;align=center;verticalAlign=middle;whiteSpace=wrap;rounded=0;" vertex="1" parent="Qa8hO3EmP1lbb9F087W9-219">
          <mxGeometry x="24.549999999999997" y="75" width="350.89" height="30" as="geometry" />
        </mxCell>
        <mxCell id="Qa8hO3EmP1lbb9F087W9-222" style="edgeStyle=orthogonalEdgeStyle;rounded=0;orthogonalLoop=1;jettySize=auto;html=1;exitX=0.5;exitY=1;exitDx=0;exitDy=0;strokeColor=#A1A1AA;strokeWidth=3;" edge="1" parent="Qa8hO3EmP1lbb9F087W9-211" source="Qa8hO3EmP1lbb9F087W9-213" target="Qa8hO3EmP1lbb9F087W9-220">
          <mxGeometry relative="1" as="geometry" />
        </mxCell>
        <mxCell id="Qa8hO3EmP1lbb9F087W9-223" value="" style="group" vertex="1" connectable="0" parent="Qa8hO3EmP1lbb9F087W9-211">
          <mxGeometry x="940" y="520" width="1040" height="220" as="geometry" />
        </mxCell>
        <mxCell id="Qa8hO3EmP1lbb9F087W9-224" value="" style="rounded=1;whiteSpace=wrap;html=1;fillColor=none;strokeColor=#A1A1AA;" vertex="1" parent="Qa8hO3EmP1lbb9F087W9-223">
          <mxGeometry width="1040" height="220" as="geometry" />
        </mxCell>
        <mxCell id="Qa8hO3EmP1lbb9F087W9-225" value="" style="group" vertex="1" connectable="0" parent="Qa8hO3EmP1lbb9F087W9-223">
          <mxGeometry x="20" y="20" width="400" height="180" as="geometry" />
        </mxCell>
        <mxCell id="Qa8hO3EmP1lbb9F087W9-226" value="" style="rounded=1;whiteSpace=wrap;html=1;fillColor=#2fcc71;strokeColor=none;" vertex="1" parent="Qa8hO3EmP1lbb9F087W9-225">
          <mxGeometry width="400" height="180" as="geometry" />
        </mxCell>
        <mxCell id="Qa8hO3EmP1lbb9F087W9-227" value="&lt;font color=&quot;#ffffff&quot; style=&quot;font-size: 24px;&quot;&gt;Domain Package&lt;/font&gt;" style="text;html=1;strokeColor=none;fillColor=none;align=center;verticalAlign=middle;whiteSpace=wrap;rounded=0;" vertex="1" parent="Qa8hO3EmP1lbb9F087W9-225">
          <mxGeometry x="102.36" y="75" width="195.29" height="30" as="geometry" />
        </mxCell>
        <mxCell id="Qa8hO3EmP1lbb9F087W9-228" value="" style="rounded=1;whiteSpace=wrap;html=1;fillColor=#2fcc71;strokeColor=none;" vertex="1" parent="Qa8hO3EmP1lbb9F087W9-223">
          <mxGeometry x="620" y="20" width="400" height="180" as="geometry" />
        </mxCell>
        <mxCell id="Qa8hO3EmP1lbb9F087W9-229" value="&lt;font color=&quot;#ffffff&quot; style=&quot;font-size: 24px;&quot;&gt;Domain Package&lt;/font&gt;" style="text;html=1;strokeColor=none;fillColor=none;align=center;verticalAlign=middle;whiteSpace=wrap;rounded=0;" vertex="1" parent="Qa8hO3EmP1lbb9F087W9-223">
          <mxGeometry x="711.25" y="95" width="217.5" height="30" as="geometry" />
        </mxCell>
        <mxCell id="Qa8hO3EmP1lbb9F087W9-230" value="&lt;font style=&quot;font-size: 24px;&quot; color=&quot;#a1a1aa&quot;&gt;...&lt;/font&gt;" style="text;html=1;strokeColor=none;fillColor=none;align=center;verticalAlign=middle;whiteSpace=wrap;rounded=0;" vertex="1" parent="Qa8hO3EmP1lbb9F087W9-223">
          <mxGeometry x="490" y="95" width="60" height="30" as="geometry" />
        </mxCell>
        <mxCell id="Qa8hO3EmP1lbb9F087W9-231" value="" style="group" vertex="1" connectable="0" parent="Qa8hO3EmP1lbb9F087W9-211">
          <mxGeometry x="940" y="790" width="1040" height="220" as="geometry" />
        </mxCell>
        <mxCell id="Qa8hO3EmP1lbb9F087W9-232" value="" style="rounded=1;whiteSpace=wrap;html=1;fillColor=none;strokeColor=#A1A1AA;" vertex="1" parent="Qa8hO3EmP1lbb9F087W9-231">
          <mxGeometry width="1040" height="220" as="geometry" />
        </mxCell>
        <mxCell id="Qa8hO3EmP1lbb9F087W9-233" value="" style="group" vertex="1" connectable="0" parent="Qa8hO3EmP1lbb9F087W9-231">
          <mxGeometry x="20" y="20" width="400" height="180" as="geometry" />
        </mxCell>
        <mxCell id="Qa8hO3EmP1lbb9F087W9-234" value="" style="rounded=1;whiteSpace=wrap;html=1;fillColor=#3498DB;strokeColor=none;" vertex="1" parent="Qa8hO3EmP1lbb9F087W9-233">
          <mxGeometry width="400" height="180" as="geometry" />
        </mxCell>
        <mxCell id="Qa8hO3EmP1lbb9F087W9-235" value="&lt;font color=&quot;#ffffff&quot; style=&quot;font-size: 24px;&quot;&gt;Infrastructure Package&lt;/font&gt;" style="text;html=1;strokeColor=none;fillColor=none;align=center;verticalAlign=middle;whiteSpace=wrap;rounded=0;" vertex="1" parent="Qa8hO3EmP1lbb9F087W9-233">
          <mxGeometry x="76.18" y="75" width="247.64" height="30" as="geometry" />
        </mxCell>
        <mxCell id="Qa8hO3EmP1lbb9F087W9-236" value="" style="rounded=1;whiteSpace=wrap;html=1;fillColor=#3498DB;strokeColor=none;" vertex="1" parent="Qa8hO3EmP1lbb9F087W9-231">
          <mxGeometry x="620" y="20" width="400" height="180" as="geometry" />
        </mxCell>
        <mxCell id="Qa8hO3EmP1lbb9F087W9-237" value="&lt;font color=&quot;#ffffff&quot; style=&quot;font-size: 24px;&quot;&gt;Infrastructure Package&lt;/font&gt;" style="text;html=1;strokeColor=none;fillColor=none;align=center;verticalAlign=middle;whiteSpace=wrap;rounded=0;" vertex="1" parent="Qa8hO3EmP1lbb9F087W9-231">
          <mxGeometry x="695.63" y="95" width="248.75" height="30" as="geometry" />
        </mxCell>
        <mxCell id="Qa8hO3EmP1lbb9F087W9-238" value="&lt;font style=&quot;font-size: 24px;&quot; color=&quot;#a1a1aa&quot;&gt;...&lt;/font&gt;" style="text;html=1;strokeColor=none;fillColor=none;align=center;verticalAlign=middle;whiteSpace=wrap;rounded=0;" vertex="1" parent="Qa8hO3EmP1lbb9F087W9-231">
          <mxGeometry x="490" y="95" width="60" height="30" as="geometry" />
        </mxCell>
        <mxCell id="Qa8hO3EmP1lbb9F087W9-239" style="edgeStyle=orthogonalEdgeStyle;rounded=0;orthogonalLoop=1;jettySize=auto;html=1;exitX=0.5;exitY=0;exitDx=0;exitDy=0;entryX=0.5;entryY=1;entryDx=0;entryDy=0;strokeWidth=3;strokeColor=#A1A1AA;" edge="1" parent="Qa8hO3EmP1lbb9F087W9-211" source="Qa8hO3EmP1lbb9F087W9-234" target="Qa8hO3EmP1lbb9F087W9-226">
          <mxGeometry relative="1" as="geometry" />
        </mxCell>
        <mxCell id="Qa8hO3EmP1lbb9F087W9-240" style="edgeStyle=orthogonalEdgeStyle;rounded=0;orthogonalLoop=1;jettySize=auto;html=1;exitX=0.5;exitY=0;exitDx=0;exitDy=0;entryX=0.5;entryY=1;entryDx=0;entryDy=0;strokeColor=#A1A1AA;strokeWidth=3;" edge="1" parent="Qa8hO3EmP1lbb9F087W9-211" source="Qa8hO3EmP1lbb9F087W9-236" target="Qa8hO3EmP1lbb9F087W9-228">
          <mxGeometry relative="1" as="geometry" />
        </mxCell>
        <mxCell id="Qa8hO3EmP1lbb9F087W9-241" value="" style="rounded=1;whiteSpace=wrap;html=1;fillColor=#cccccc;strokeColor=none;container=0;" vertex="1" parent="Qa8hO3EmP1lbb9F087W9-211">
          <mxGeometry x="970" y="30" width="400" height="180" as="geometry" />
        </mxCell>
        <mxCell id="Qa8hO3EmP1lbb9F087W9-242" value="&lt;font color=&quot;#ffffff&quot;&gt;&lt;span style=&quot;font-size: 24px;&quot;&gt;Platform Navigation Package&lt;/span&gt;&lt;/font&gt;" style="text;html=1;strokeColor=none;fillColor=none;align=center;verticalAlign=middle;whiteSpace=wrap;rounded=0;container=0;" vertex="1" parent="Qa8hO3EmP1lbb9F087W9-211">
          <mxGeometry x="1005.6199999999999" y="105" width="328.75" height="30" as="geometry" />
        </mxCell>
        <mxCell id="Qa8hO3EmP1lbb9F087W9-243" value="" style="rounded=1;whiteSpace=wrap;html=1;fillColor=#ff5252;strokeColor=none;container=0;arcSize=24;" vertex="1" parent="Qa8hO3EmP1lbb9F087W9-211">
          <mxGeometry x="546" y="120" width="400" height="90" as="geometry" />
        </mxCell>
        <mxCell id="Qa8hO3EmP1lbb9F087W9-244" value="" style="rounded=1;whiteSpace=wrap;html=1;fillColor=#F9C80E;strokeColor=none;container=0;arcSize=24;" vertex="1" parent="Qa8hO3EmP1lbb9F087W9-211">
          <mxGeometry x="546" y="30" width="400" height="90" as="geometry" />
        </mxCell>
        <mxCell id="Qa8hO3EmP1lbb9F087W9-245" value="" style="rounded=0;whiteSpace=wrap;html=1;fillColor=#ff5252;strokeColor=none;container=0;" vertex="1" parent="Qa8hO3EmP1lbb9F087W9-211">
          <mxGeometry x="546" y="120" width="400" height="45" as="geometry" />
        </mxCell>
        <mxCell id="Qa8hO3EmP1lbb9F087W9-246" value="" style="rounded=0;whiteSpace=wrap;html=1;fillColor=#f9c80c;strokeColor=none;container=0;" vertex="1" parent="Qa8hO3EmP1lbb9F087W9-211">
          <mxGeometry x="546" y="80" width="400" height="40" as="geometry" />
        </mxCell>
        <mxCell id="Qa8hO3EmP1lbb9F087W9-247" value="&lt;font color=&quot;#ffffff&quot; style=&quot;font-size: 24px;&quot;&gt;Platform Root Package&lt;/font&gt;" style="text;html=1;strokeColor=none;fillColor=none;align=center;verticalAlign=middle;whiteSpace=wrap;rounded=0;container=0;" vertex="1" parent="Qa8hO3EmP1lbb9F087W9-211">
          <mxGeometry x="617.1700000000001" y="105" width="257.65" height="30" as="geometry" />
        </mxCell>
        <mxCell id="Qa8hO3EmP1lbb9F087W9-248" value="" style="rounded=1;whiteSpace=wrap;html=1;fillColor=#ff5252;strokeColor=none;container=0;arcSize=24;" vertex="1" parent="Qa8hO3EmP1lbb9F087W9-211">
          <mxGeometry x="546" y="340" width="400" height="90" as="geometry" />
        </mxCell>
        <mxCell id="Qa8hO3EmP1lbb9F087W9-249" value="" style="rounded=1;whiteSpace=wrap;html=1;fillColor=#F9C80E;strokeColor=none;container=0;arcSize=24;" vertex="1" parent="Qa8hO3EmP1lbb9F087W9-211">
          <mxGeometry x="546" y="250" width="400" height="90" as="geometry" />
        </mxCell>
        <mxCell id="Qa8hO3EmP1lbb9F087W9-250" value="" style="rounded=0;whiteSpace=wrap;html=1;fillColor=#ff5252;strokeColor=none;container=0;" vertex="1" parent="Qa8hO3EmP1lbb9F087W9-211">
          <mxGeometry x="546" y="340" width="400" height="45" as="geometry" />
        </mxCell>
        <mxCell id="Qa8hO3EmP1lbb9F087W9-251" value="" style="rounded=0;whiteSpace=wrap;html=1;fillColor=#f9c80c;strokeColor=none;container=0;" vertex="1" parent="Qa8hO3EmP1lbb9F087W9-211">
          <mxGeometry x="546" y="300" width="400" height="40" as="geometry" />
        </mxCell>
        <mxCell id="Qa8hO3EmP1lbb9F087W9-252" value="&lt;font color=&quot;#ffffff&quot; style=&quot;font-size: 24px;&quot;&gt;Platform App Feature Package&lt;/font&gt;" style="text;html=1;strokeColor=none;fillColor=none;align=center;verticalAlign=middle;whiteSpace=wrap;rounded=0;container=0;" vertex="1" parent="Qa8hO3EmP1lbb9F087W9-211">
          <mxGeometry x="617.1700000000001" y="325" width="257.65" height="30" as="geometry" />
        </mxCell>
        <mxCell id="Qa8hO3EmP1lbb9F087W9-253" value="" style="rounded=1;whiteSpace=wrap;html=1;fillColor=#ff5252;strokeColor=none;container=0;arcSize=24;" vertex="1" parent="Qa8hO3EmP1lbb9F087W9-211">
          <mxGeometry x="970" y="340" width="400" height="90" as="geometry" />
        </mxCell>
        <mxCell id="Qa8hO3EmP1lbb9F087W9-254" value="" style="rounded=1;whiteSpace=wrap;html=1;fillColor=#F9C80E;strokeColor=none;container=0;arcSize=24;" vertex="1" parent="Qa8hO3EmP1lbb9F087W9-211">
          <mxGeometry x="970" y="250" width="400" height="90" as="geometry" />
        </mxCell>
        <mxCell id="Qa8hO3EmP1lbb9F087W9-255" value="" style="rounded=0;whiteSpace=wrap;html=1;fillColor=#ff5252;strokeColor=none;container=0;" vertex="1" parent="Qa8hO3EmP1lbb9F087W9-211">
          <mxGeometry x="970" y="340" width="400" height="45" as="geometry" />
        </mxCell>
        <mxCell id="Qa8hO3EmP1lbb9F087W9-256" value="" style="rounded=0;whiteSpace=wrap;html=1;fillColor=#f9c80c;strokeColor=none;container=0;" vertex="1" parent="Qa8hO3EmP1lbb9F087W9-211">
          <mxGeometry x="970" y="300" width="400" height="40" as="geometry" />
        </mxCell>
        <mxCell id="Qa8hO3EmP1lbb9F087W9-257" value="&lt;font color=&quot;#ffffff&quot; style=&quot;font-size: 24px;&quot;&gt;Platform Feature Package&lt;/font&gt;" style="text;html=1;strokeColor=none;fillColor=none;align=center;verticalAlign=middle;whiteSpace=wrap;rounded=0;container=0;" vertex="1" parent="Qa8hO3EmP1lbb9F087W9-211">
          <mxGeometry x="1041.17" y="325" width="257.65" height="30" as="geometry" />
        </mxCell>
        <mxCell id="Qa8hO3EmP1lbb9F087W9-258" value="" style="rounded=1;whiteSpace=wrap;html=1;fillColor=#ff5252;strokeColor=none;container=0;arcSize=24;" vertex="1" parent="Qa8hO3EmP1lbb9F087W9-211">
          <mxGeometry x="1540" y="340" width="400" height="90" as="geometry" />
        </mxCell>
        <mxCell id="Qa8hO3EmP1lbb9F087W9-259" value="" style="rounded=1;whiteSpace=wrap;html=1;fillColor=#F9C80E;strokeColor=none;container=0;arcSize=24;" vertex="1" parent="Qa8hO3EmP1lbb9F087W9-211">
          <mxGeometry x="1540" y="250" width="400" height="90" as="geometry" />
        </mxCell>
        <mxCell id="Qa8hO3EmP1lbb9F087W9-260" value="" style="rounded=0;whiteSpace=wrap;html=1;fillColor=#ff5252;strokeColor=none;container=0;" vertex="1" parent="Qa8hO3EmP1lbb9F087W9-211">
          <mxGeometry x="1540" y="340" width="400" height="45" as="geometry" />
        </mxCell>
        <mxCell id="Qa8hO3EmP1lbb9F087W9-261" value="" style="rounded=0;whiteSpace=wrap;html=1;fillColor=#f9c80c;strokeColor=none;container=0;" vertex="1" parent="Qa8hO3EmP1lbb9F087W9-211">
          <mxGeometry x="1540" y="300" width="400" height="40" as="geometry" />
        </mxCell>
        <mxCell id="Qa8hO3EmP1lbb9F087W9-262" value="&lt;font color=&quot;#ffffff&quot; style=&quot;font-size: 24px;&quot;&gt;Platform Feature Package&lt;/font&gt;" style="text;html=1;strokeColor=none;fillColor=none;align=center;verticalAlign=middle;whiteSpace=wrap;rounded=0;container=0;" vertex="1" parent="Qa8hO3EmP1lbb9F087W9-211">
          <mxGeometry x="1611.17" y="325" width="257.65" height="30" as="geometry" />
        </mxCell>
        <mxCell id="Qa8hO3EmP1lbb9F087W9-263" value="&lt;font style=&quot;font-size: 24px;&quot; color=&quot;#a1a1aa&quot;&gt;...&lt;/font&gt;" style="text;html=1;strokeColor=none;fillColor=none;align=center;verticalAlign=middle;whiteSpace=wrap;rounded=0;" vertex="1" parent="Qa8hO3EmP1lbb9F087W9-211">
          <mxGeometry x="1430" y="325" width="60" height="30" as="geometry" />
        </mxCell>
        <mxCell id="Qa8hO3EmP1lbb9F087W9-264" style="edgeStyle=orthogonalEdgeStyle;rounded=0;orthogonalLoop=1;jettySize=auto;html=1;exitX=0.5;exitY=1;exitDx=0;exitDy=0;entryX=0.5;entryY=1;entryDx=0;entryDy=0;strokeWidth=3;strokeColor=#A1A1AA;" edge="1" parent="Qa8hO3EmP1lbb9F087W9-211" source="Qa8hO3EmP1lbb9F087W9-232" target="Qa8hO3EmP1lbb9F087W9-216">
          <mxGeometry relative="1" as="geometry" />
        </mxCell>
        <mxCell id="Qa8hO3EmP1lbb9F087W9-265" value="&lt;font color=&quot;#a1a1aa&quot; style=&quot;font-size: 24px;&quot;&gt;&amp;lt;platform&amp;gt;&lt;/font&gt;" style="text;html=1;strokeColor=none;fillColor=none;align=center;verticalAlign=middle;whiteSpace=wrap;rounded=0;" vertex="1" parent="Qa8hO3EmP1lbb9F087W9-211">
          <mxGeometry x="1850" y="40" width="60" height="30" as="geometry" />
        </mxCell>
        <mxCell id="Qa8hO3EmP1lbb9F087W9-266" value="&lt;font style=&quot;font-size: 48px;&quot; color=&quot;#a1a1aa&quot;&gt;...&lt;/font&gt;" style="text;html=1;strokeColor=none;fillColor=none;align=center;verticalAlign=middle;whiteSpace=wrap;rounded=0;" vertex="1" parent="Qa8hO3EmP1lbb9F087W9-210">
          <mxGeometry x="2170" y="220" width="60" height="30" as="geometry" />
        </mxCell>
      </root>
    </mxGraphModel>
  </diagram>
</mxfile>
